<svg width="25" height="25" fill="none" xmlns="http://www.w3.org/2000/svg"><g clip-path="url(#clip0)"><path d="M18.125 1C15.95 1 13.863 2.013 12.5 3.612 11.137 2.012 9.05 1 6.875 1 3.025 1 0 4.025 0 7.875 0 12.6 4.25 16.45 10.688 22.3l1.812 1.637 1.813-1.65C20.75 16.45 25 12.6 25 7.876 25 4.025 21.975 1 18.125 1zm-5.5 19.438l-.125.125-.125-.125C6.425 15.05 2.5 11.488 2.5 7.874c0-2.5 1.875-4.375 4.375-4.375 1.925 0 3.8 1.237 4.463 2.95h2.337c.65-1.713 2.525-2.95 4.45-2.95 2.5 0 4.375 1.875 4.375 4.375 0 3.613-3.925 7.175-9.875 12.563z" fill="#868686"/></g><defs><clipPath id="clip0"><path fill="#fff" d="M0 0h25v25H0z"/></clipPath></defs></svg>