<svg width="25" height="25" fill="none" xmlns="http://www.w3.org/2000/svg"><g clip-path="url(#clip0)"><path d="M12.776.25A12.249 12.249 0 002.428 5.88c-.097.15.012.35.191.35h2.002c.136 0 .265-.06.35-.166.2-.242.413-.475.638-.697a10.075 10.075 0 017.135-2.953 10.076 10.076 0 017.135 2.953 10.06 10.06 0 012.165 3.203 9.98 9.98 0 01.791 3.924 10.032 10.032 0 01-2.955 7.127 10.077 10.077 0 01-7.136 2.953 10.075 10.075 0 01-7.136-2.953 11.26 11.26 0 01-.637-.698.453.453 0 00-.35-.165H2.619c-.18 0-.29.2-.19.35a12.252 12.252 0 0010.315 5.63c6.726 0 12.187-5.413 12.255-12.119A12.23 12.23 0 0012.776.25zM9.169 15.683v-2.164H.228A.228.228 0 010 13.29v-1.595c0-.125.103-.227.228-.227h8.94V9.305c0-.191.223-.3.37-.18l4.041 3.19a.227.227 0 010 .358l-4.04 3.19a.23.23 0 01-.37-.18z" fill="#000"/></g><defs><clipPath id="clip0"><path fill="#fff" d="M0 0h25v25H0z"/></clipPath></defs></svg>