<svg width="25" height="25" fill="none" xmlns="http://www.w3.org/2000/svg"><path d="M20.031 15.625a4.681 4.681 0 014.688 4.688A4.681 4.681 0 0120.03 25a4.681 4.681 0 01-4.687-4.688c0-.375.047-.718.14-1.078L8.64 15.641a4.618 4.618 0 01-3.454 1.546A4.681 4.681 0 01.5 12.5a4.681 4.681 0 014.688-4.688c1.375 0 2.593.61 3.453 1.547l6.843-3.593a4.164 4.164 0 01-.14-1.079A4.681 4.681 0 0120.03 0a4.681 4.681 0 014.688 4.688 4.681 4.681 0 01-4.688 4.687c-1.375 0-2.593-.61-3.453-1.547l-6.844 3.594c.19.706.19 1.45 0 2.156l6.844 3.594a4.618 4.618 0 013.453-1.547z" fill="#868686"/></svg>