<svg width="25" height="25" fill="none" xmlns="http://www.w3.org/2000/svg"><g clip-path="url(#clip0)"><path d="M24.119 14.552a11.96 11.96 0 00.197-2.141 11.71 11.71 0 00-.929-4.594 11.754 11.754 0 00-2.531-3.754 11.744 11.744 0 00-3.754-2.528 11.72 11.72 0 00-4.594-.929c-.75 0-1.503.072-2.235.213A7.035 7.035 0 006.988 0a6.946 6.946 0 00-4.94 2.047A6.946 6.946 0 000 6.988c0 1.188.306 2.357.878 3.388A11.979 11.979 0 00.7 12.411c0 1.594.313 3.14.928 4.594a11.745 11.745 0 002.529 3.754 11.745 11.745 0 003.753 2.528c1.457.616 3 .928 4.595.928.693 0 1.387-.062 2.069-.184a6.993 6.993 0 003.438.906 6.933 6.933 0 004.94-2.047A6.933 6.933 0 0025 17.95a6.952 6.952 0 00-.881-3.398zm-2.754 6.75a4.684 4.684 0 01-3.35 1.388 4.736 4.736 0 01-2.332-.615l-.703-.397-.797.14c-.556.1-1.119.15-1.675.15a9.477 9.477 0 01-3.723-.753 9.491 9.491 0 01-3.037-2.047 9.51 9.51 0 01-2.798-6.754c0-.544.05-1.1.144-1.65l.138-.785-.388-.697a4.72 4.72 0 01-.597-2.294c0-1.269.49-2.453 1.388-3.35A4.709 4.709 0 016.988 2.25a4.782 4.782 0 012.232.56l.7.369.775-.15c.59-.113 1.2-.172 1.813-.172 1.294 0 2.54.253 3.719.75a9.489 9.489 0 013.038 2.047 9.48 9.48 0 012.05 3.038c.5 1.178.75 2.425.75 3.719a9.6 9.6 0 01-.16 1.735l-.146.796.394.707c.394.703.6 1.5.6 2.303 0 1.272-.49 2.454-1.388 3.35zM14.733 11.04l-2.763-.613c-1.05-.24-2.26-.556-2.26-1.547 0-.99.848-1.684 2.379-1.684 3.085 0 2.803 2.119 4.335 2.119.806 0 1.513-.475 1.513-1.288 0-1.9-3.045-3.329-5.626-3.329-2.804 0-5.788 1.191-5.788 4.36 0 1.526.544 3.15 3.55 3.904l3.732.931c1.128.279 1.412.913 1.412 1.488 0 .953-.947 1.885-2.662 1.885-3.35 0-2.885-2.579-4.679-2.579-.806 0-1.39.556-1.39 1.347 0 1.544 1.874 3.607 6.069 3.607 3.99 0 5.97-1.922 5.97-4.5 0-1.66-.766-3.426-3.792-4.101z" fill="#000"/></g><defs><clipPath id="clip0"><path fill="#fff" d="M0 0h25v25H0z"/></clipPath></defs></svg>