<svg width="25" height="25" fill="none" xmlns="http://www.w3.org/2000/svg"><path d="M18.225 14.982c-.313-.159-1.84-.903-2.124-1.01-.285-.1-.492-.154-.7.16-.203.305-.802 1.004-.985 1.208-.182.204-.362.22-.67.081-.314-.159-1.315-.484-2.503-1.55-.928-.826-1.546-1.843-1.73-2.156-.183-.31-.02-.485.135-.64.142-.141.313-.357.472-.544.15-.188.199-.314.309-.517.101-.22.05-.39-.028-.545-.078-.155-.7-1.689-.96-2.3-.249-.606-.509-.528-.7-.528-.18-.017-.387-.017-.594-.017a1.18 1.18 0 00-.83.374c-.286.314-1.091 1.062-1.091 2.576 0 1.518 1.115 2.987 1.27 3.207.158.203 2.192 3.328 5.313 4.67.745.314 1.323.501 1.775.656.744.236 1.424.203 1.96.126.594-.098 1.84-.753 2.1-1.485.265-.737.265-1.347.188-1.486-.077-.142-.28-.219-.594-.357l-.013.077zm-5.66 7.674h-.017c-1.847 0-3.674-.5-5.27-1.436l-.373-.224-3.907 1.017 1.05-3.8-.252-.391a10.286 10.286 0 01-1.579-5.477c0-5.672 4.643-10.298 10.356-10.298 2.767 0 5.363 1.078 7.316 3.031a10.203 10.203 0 013.031 7.284c-.008 5.668-4.647 10.294-10.351 10.294h-.004zm8.81-19.063C18.997 1.298 15.872 0 12.547 0 5.692 0 .11 5.559.105 12.39c0 2.181.57 4.31 1.66 6.193L0 25l6.6-1.721a12.601 12.601 0 005.95 1.51h.003c6.86 0 12.443-5.56 12.447-12.395 0-3.308-1.29-6.421-3.641-8.761l.015-.04z" fill="#000"/></svg>