<svg width="25" height="25" viewBox="0 0 25 25" fill="none" xmlns="http://www.w3.org/2000/svg">
<path d="M2.27273 0C1.02955 0 0 1.02955 0 2.27273V22.7273C0 23.9705 1.02955 25 2.27273 25H22.7273C23.9705 25 25 23.9705 25 22.7273V2.27273C25 1.02955 23.9705 0 22.7273 0H2.27273ZM2.27273 2.27273H22.7273V22.7273H16.8318V15.0568H19.7795L20.2057 11.6477H16.833V9.44545C16.833 8.45227 17.0761 7.77727 18.5011 7.77727H20.3477V4.6875C20.033 4.64773 18.9409 4.58068 17.6852 4.58068C15.0659 4.58068 13.2818 6.15682 13.2818 9.09091V11.6477H10.2989V15.0568H13.2807V22.7273H2.27273V2.27273Z" fill="black"/>
</svg>
