<svg width="25" height="25" viewBox="0 0 25 25" fill="none" xmlns="http://www.w3.org/2000/svg">
<g clip-path="url(#clip0)">
<path d="M18.125 1C15.95 1 13.8625 2.0125 12.5 3.6125C11.1375 2.0125 9.05 1 6.875 1C3.025 1 0 4.025 0 7.875C0 12.6 4.25 16.45 10.6875 22.3L12.5 23.9375L14.3125 22.2875C20.75 16.45 25 12.6 25 7.875C25 4.025 21.975 1 18.125 1ZM12.625 20.4375L12.5 20.5625L12.375 20.4375C6.425 15.05 2.5 11.4875 2.5 7.875C2.5 5.375 4.375 3.5 6.875 3.5C8.8 3.5 10.675 4.7375 11.3375 6.45H13.675C14.325 4.7375 16.2 3.5 18.125 3.5C20.625 3.5 22.5 5.375 22.5 7.875C22.5 11.4875 18.575 15.05 12.625 20.4375Z" fill="#868686"/>
</g>
<defs>
<clipPath id="clip0">
<rect width="25" height="25" fill="white"/>
</clipPath>
</defs>
</svg>
