<svg width="25" height="25" viewBox="0 0 25 25" fill="none" xmlns="http://www.w3.org/2000/svg">
<g clip-path="url(#clip0)">
<path d="M12.7756 0.250043C8.43335 0.238654 4.61217 2.48523 2.42824 5.8793C2.33143 6.03021 2.43963 6.22953 2.61901 6.22953H4.62072C4.75739 6.22953 4.88552 6.16973 4.97094 6.06438C5.17026 5.82235 5.38381 5.58887 5.60876 5.36677C6.537 4.44138 7.61615 3.71245 8.81775 3.20562C10.0592 2.6817 11.3804 2.41405 12.7443 2.41405C14.1082 2.41405 15.4293 2.67885 16.6708 3.20562C17.8724 3.71245 18.9515 4.44138 19.8798 5.36677C20.808 6.29217 21.5341 7.37132 22.0438 8.57007C22.5706 9.81152 22.8354 11.1299 22.8354 12.4937C22.8354 13.8576 22.5677 15.176 22.0438 16.4174C21.537 17.6162 20.808 18.6953 19.8798 19.6207C18.9515 20.5461 17.8724 21.275 16.6708 21.7819C15.4284 22.3067 14.093 22.5759 12.7443 22.5735C11.3804 22.5735 10.0592 22.3058 8.81775 21.7819C7.61851 21.2756 6.52876 20.5416 5.60876 19.6207C5.38381 19.3958 5.17311 19.1623 4.97094 18.9231C4.88552 18.8178 4.75454 18.758 4.62072 18.758H2.61901C2.43963 18.758 2.32858 18.9573 2.42824 19.1082C4.60933 22.4937 8.41342 24.7375 12.7443 24.7375C19.4698 24.7375 24.931 19.3246 24.9994 12.619C25.0677 5.80527 19.5979 0.267127 12.7756 0.250043ZM9.16854 15.6828V13.5188H0.22779C0.102505 13.5188 0 13.4163 0 13.291V11.6965C0 11.5712 0.102505 11.4687 0.22779 11.4687H9.16854V9.30469C9.16854 9.11392 9.39064 9.00572 9.5387 9.12531L13.5791 12.3144C13.6063 12.3357 13.6284 12.3629 13.6435 12.394C13.6587 12.4251 13.6665 12.4592 13.6665 12.4937C13.6665 12.5283 13.6587 12.5624 13.6435 12.5935C13.6284 12.6246 13.6063 12.6518 13.5791 12.6731L9.5387 15.8622C9.39064 15.9789 9.16854 15.8736 9.16854 15.6828Z" fill="black"/>
</g>
<defs>
<clipPath id="clip0">
<rect width="25" height="25" fill="white"/>
</clipPath>
</defs>
</svg>
