<svg width="25" height="25" viewBox="0 0 25 25" fill="none" xmlns="http://www.w3.org/2000/svg">
<path d="M20.0312 15.625C22.625 15.625 24.7187 17.7188 24.7187 20.3125C24.7187 22.9062 22.625 25 20.0312 25C17.4375 25 15.3437 22.9062 15.3437 20.3125C15.3437 19.9375 15.3906 19.5938 15.4844 19.2344L8.64062 15.6406C7.78125 16.5938 6.5625 17.1875 5.1875 17.1875C2.59375 17.1875 0.5 15.0938 0.5 12.5C0.5 9.90625 2.59375 7.8125 5.1875 7.8125C6.5625 7.8125 7.78125 8.42188 8.64062 9.35938L15.4844 5.76562C15.3906 5.40625 15.3437 5.0625 15.3437 4.6875C15.3437 2.09375 17.4375 0 20.0312 0C22.625 0 24.7187 2.09375 24.7187 4.6875C24.7187 7.28125 22.625 9.375 20.0312 9.375C18.6562 9.375 17.4375 8.76562 16.5781 7.82813L9.73437 11.4219C9.92362 12.1282 9.92362 12.8718 9.73437 13.5781L16.5781 17.1719C17.4375 16.2188 18.6562 15.625 20.0312 15.625Z" fill="#868686"/>
</svg>
