<svg width="25" height="25" viewBox="0 0 25 25" fill="none" xmlns="http://www.w3.org/2000/svg">
<g clip-path="url(#clip0)">
<path d="M24.1186 14.5518C24.2468 13.8486 24.3155 13.1297 24.3155 12.4109C24.3155 10.817 24.003 9.26989 23.3873 7.81659C22.7935 6.41017 21.9402 5.14751 20.8557 4.063C19.7803 2.98481 18.5054 2.12606 17.1021 1.53456C15.6457 0.918863 14.1018 0.606325 12.5078 0.606325C11.7577 0.606325 11.0045 0.678208 10.2732 0.818851C9.26121 0.282607 8.13364 0.00151954 6.98838 0C5.12253 0 3.36606 0.728215 2.04715 2.04713C1.39633 2.69461 0.880308 3.46468 0.52893 4.31281C0.177552 5.16095 -0.00221581 6.07032 2.06128e-05 6.98836C2.06128e-05 8.17601 0.306309 9.3449 0.878254 10.3763C0.762615 11.0451 0.700107 11.7296 0.700107 12.4109C0.700107 14.0049 1.01265 15.5519 1.62835 17.0052C2.22217 18.4116 3.07227 19.6743 4.15678 20.7588C5.24129 21.8433 6.50395 22.6934 7.91037 23.2872C9.3668 23.9029 10.9107 24.2155 12.5047 24.2155C13.1985 24.2155 13.8924 24.153 14.5737 24.0311C15.6207 24.6218 16.8021 24.9374 18.0116 24.9374C19.8775 24.9374 21.6339 24.2124 22.9529 22.8903C24.2749 21.5714 25 19.8149 25 17.9491C25.0031 16.7614 24.6968 15.5894 24.1186 14.5518ZM21.3652 21.3026C20.4682 22.2027 19.2836 22.6903 18.0147 22.6903C17.199 22.6903 16.3958 22.4778 15.6832 22.0746L14.98 21.6777L14.183 21.8183C13.6267 21.9183 13.0641 21.9683 12.5078 21.9683C11.2139 21.9683 9.96687 21.7152 8.78548 21.2151C7.65096 20.7369 6.62896 20.0493 5.7476 19.168C4.87514 18.2985 4.17989 17.2678 3.70048 16.1332C3.20041 14.955 2.95038 13.7079 2.95038 12.414C2.95038 11.8702 3.00039 11.3139 3.09415 10.7638L3.23167 9.97935L2.84412 9.28239C2.45324 8.58095 2.24777 7.79137 2.24717 6.98836C2.24717 5.71946 2.73786 4.53493 3.63484 3.63795C4.53495 2.74096 5.71948 2.25028 6.98838 2.25028C7.76667 2.25238 8.53268 2.44442 9.21991 2.80972L9.91999 3.17852L10.6951 3.0285C11.2858 2.91598 11.8952 2.8566 12.5078 2.8566C13.8017 2.8566 15.0488 3.10976 16.227 3.60669C17.3678 4.088 18.3867 4.77559 19.2649 5.65382C20.1463 6.53205 20.8338 7.55406 21.3151 8.6917C21.8152 9.86997 22.0652 11.117 22.0652 12.4109C22.0652 12.986 22.0121 13.5673 21.9058 14.1455L21.759 14.9425L22.1528 15.6488C22.5465 16.352 22.7528 17.149 22.7528 17.9522C22.7528 19.2242 22.2621 20.4056 21.3652 21.3026ZM14.7331 11.0389L11.9702 10.4263C10.9201 10.1856 9.71059 9.86997 9.71059 8.87922C9.71059 7.88847 10.5576 7.19464 12.089 7.19464C15.1738 7.19464 14.8925 9.31365 16.4239 9.31365C17.2303 9.31365 17.9366 8.83859 17.9366 8.02599C17.9366 6.12575 14.8925 4.69745 12.3109 4.69745C9.50744 4.69745 6.5227 5.88823 6.5227 9.05737C6.5227 10.5826 7.06652 12.2078 10.0731 12.961L13.8048 13.8923C14.9331 14.1705 15.2175 14.8049 15.2175 15.38C15.2175 16.3333 14.2705 17.2646 12.5547 17.2646C9.20428 17.2646 9.66996 14.6862 7.87599 14.6862C7.06964 14.6862 6.48519 15.2425 6.48519 16.0332C6.48519 17.5772 8.36043 19.6399 12.5547 19.6399C16.5458 19.6399 18.5242 17.7178 18.5242 15.1394C18.5242 13.4798 17.7585 11.7139 14.7331 11.0389Z" fill="black"/>
</g>
<defs>
<clipPath id="clip0">
<rect width="25" height="25" fill="white"/>
</clipPath>
</defs>
</svg>
