<svg width="21" height="40" viewBox="0 0 21 40" fill="none" xmlns="http://www.w3.org/2000/svg">
<path d="M2.91248 39.9948C2.24638 39.9961 1.60085 39.7642 1.08795 39.3392C0.799283 39.0998 0.560665 38.8059 0.385761 38.4742C0.210858 38.1425 0.103107 37.7796 0.0686809 37.4062C0.0342547 37.0328 0.0738299 36.6563 0.185139 36.2982C0.296448 35.9402 0.477301 35.6076 0.717346 35.3195L13.489 20.0391L1.17348 4.73019C0.936673 4.43859 0.759832 4.10305 0.653121 3.74288C0.54641 3.38271 0.511932 3.005 0.55167 2.63146C0.591409 2.25793 0.704577 1.89592 0.884674 1.56626C1.06477 1.23661 1.30825 0.945788 1.6011 0.710531C1.89606 0.451002 2.24149 0.255244 2.61569 0.13554C2.9899 0.0158371 3.38481 -0.0252253 3.77564 0.0149282C4.16646 0.0550817 4.54477 0.175585 4.88682 0.368876C5.22887 0.562167 5.52727 0.824072 5.7633 1.13815L19.5328 18.2431C19.9521 18.7532 20.1813 19.393 20.1813 20.0534C20.1813 20.7137 19.9521 21.3535 19.5328 21.8636L5.27866 38.9685C4.99267 39.3135 4.62938 39.5863 4.21827 39.7646C3.80715 39.9429 3.35979 40.0218 2.91248 39.9948Z" fill="#EAEAEA"/>
</svg>
